{
	"asset":{
		"generator":"Khronos glTF Blender I/O v4.0.44",
		"version":"2.0"
	},
	"scene":0,
	"scenes":[
		{
			"name":"Scene",
			"nodes":[
				0,
				1,
				2,
				3
			]
		}
	],
	"nodes":[
		{
			"mesh":0,
			"name":"seat",
			"scale":[
				1,
				0.06949638575315475,
				0.9541767835617065
			],
			"translation":[
				0,
				2.6053719520568848,
				0
			]
		},
		{
			"mesh":1,
			"name":"legs",
			"translation":[
				0,
				2.6332428455352783,
				0
			]
		},
		{
			"mesh":2,
			"name":"lehne",
			"rotation":[
				-0.08906055241823196,
				0,
				0,
				0.9960262179374695
			],
			"scale":[
				1.1355465650558472,
				0.8202998042106628,
				0.5338360667228699
			],
			"translation":[
				-0.004928067326545715,
				4.889177322387695,
				-1.3772915601730347
			]
		},
		{
			"mesh":3,
			"name":"kissen",
			"translation":[
				0,
				4.346417427062988,
				0
			]
		}
	],
	"materials":[
		{
			"doubleSided":true,
			"name":"leather",
			"normalTexture":{
				"index":0
			},
			"pbrMetallicRoughness":{
				"baseColorTexture":{
					"index":1
				},
				"metallicFactor":0,
				"metallicRoughnessTexture":{
					"index":2
				}
			}
		},
		{
			"doubleSided":true,
			"name":"legs",
			"pbrMetallicRoughness":{
				"baseColorFactor":[
					0.14073370397090912,
					0.14073370397090912,
					0.14073370397090912,
					1
				],
				"metallicFactor":0.04363638162612915,
				"roughnessFactor":0.06363634765148163
			}
		},
		{
			"doubleSided":true,
			"name":"stoff",
			"normalTexture":{
				"index":3
			},
			"pbrMetallicRoughness":{
				"baseColorTexture":{
					"index":4
				},
				"metallicFactor":0,
				"metallicRoughnessTexture":{
					"index":5
				}
			}
		}
	],
	"meshes":[
		{
			"name":"Cube",
			"primitives":[
				{
					"attributes":{
						"POSITION":0,
						"NORMAL":1,
						"TEXCOORD_0":2
					},
					"indices":3,
					"material":0
				}
			]
		},
		{
			"name":"Cylinder",
			"primitives":[
				{
					"attributes":{
						"POSITION":4,
						"NORMAL":5,
						"TEXCOORD_0":6
					},
					"indices":7,
					"material":1
				}
			]
		},
		{
			"name":"Cube.001",
			"primitives":[
				{
					"attributes":{
						"POSITION":8,
						"NORMAL":9,
						"TEXCOORD_0":10
					},
					"indices":11,
					"material":0
				}
			]
		},
		{
			"name":"Plane",
			"primitives":[
				{
					"attributes":{
						"POSITION":12,
						"NORMAL":13,
						"TEXCOORD_0":14
					},
					"indices":15,
					"material":2
				}
			]
		}
	],
	"textures":[
		{
			"sampler":0,
			"source":0
		},
		{
			"sampler":0,
			"source":1
		},
		{
			"sampler":0,
			"source":2
		},
		{
			"sampler":0,
			"source":3
		},
		{
			"sampler":0,
			"source":4
		},
		{
			"sampler":0,
			"source":5
		}
	],
	"images":[
		{
			"mimeType":"image/png",
			"name":"BlackLeather01_4K_Normal",
			"uri":"BlackLeather01_4K_Normal.png"
		},
		{
			"mimeType":"image/png",
			"name":"BlackLeather01_4K_BaseColor",
			"uri":"BlackLeather01_4K_BaseColor.png"
		},
		{
			"mimeType":"image/png",
			"name":"BlackLeather01_4K_Roughness",
			"uri":"BlackLeather01_4K_Roughness.png"
		},
		{
			"mimeType":"image/png",
			"name":"Fabric09_4K_Normal",
			"uri":"Fabric09_4K_Normal.png"
		},
		{
			"mimeType":"image/png",
			"name":"Fabric09_4K_BaseColor",
			"uri":"Fabric09_4K_BaseColor.png"
		},
		{
			"mimeType":"image/png",
			"name":"Fabric09_4K_Roughness",
			"uri":"Fabric09_4K_Roughness.png"
		}
	],
	"accessors":[
		{
			"bufferView":0,
			"componentType":5126,
			"count":538,
			"max":[
				1,
				1.0668401718139648,
				0.9478741884231567
			],
			"min":[
				-1,
				-2.833878993988037,
				-1.2297759056091309
			],
			"type":"VEC3"
		},
		{
			"bufferView":1,
			"componentType":5126,
			"count":538,
			"type":"VEC3"
		},
		{
			"bufferView":2,
			"componentType":5126,
			"count":538,
			"type":"VEC2"
		},
		{
			"bufferView":3,
			"componentType":5123,
			"count":1404,
			"type":"SCALAR"
		},
		{
			"bufferView":4,
			"componentType":5126,
			"count":394,
			"max":[
				1.00788414478302,
				3.0777783393859863,
				0.9757823944091797
			],
			"min":[
				-1.00788414478302,
				-3.010392189025879,
				-1.5911614894866943
			],
			"type":"VEC3"
		},
		{
			"bufferView":5,
			"componentType":5126,
			"count":394,
			"type":"VEC3"
		},
		{
			"bufferView":6,
			"componentType":5126,
			"count":394,
			"type":"VEC2"
		},
		{
			"bufferView":7,
			"componentType":5123,
			"count":1884,
			"type":"SCALAR"
		},
		{
			"bufferView":8,
			"componentType":5126,
			"count":89,
			"max":[
				0.8012815117835999,
				0.8106274008750916,
				0.18509331345558167
			],
			"min":[
				-0.8012815117835999,
				-0.7670395374298096,
				-0.5933786630630493
			],
			"type":"VEC3"
		},
		{
			"bufferView":9,
			"componentType":5126,
			"count":89,
			"type":"VEC3"
		},
		{
			"bufferView":10,
			"componentType":5126,
			"count":89,
			"type":"VEC2"
		},
		{
			"bufferView":11,
			"componentType":5123,
			"count":384,
			"type":"SCALAR"
		},
		{
			"bufferView":12,
			"componentType":5126,
			"count":15488,
			"max":[
				0.9026894569396973,
				-1.1664936542510986,
				0.9008948802947998
			],
			"min":[
				-0.8909279704093933,
				-1.6890668869018555,
				-0.8988961577415466
			],
			"type":"VEC3"
		},
		{
			"bufferView":13,
			"componentType":5126,
			"count":15488,
			"type":"VEC3"
		},
		{
			"bufferView":14,
			"componentType":5126,
			"count":15488,
			"type":"VEC2"
		},
		{
			"bufferView":15,
			"componentType":5123,
			"count":23232,
			"type":"SCALAR"
		}
	],
	"bufferViews":[
		{
			"buffer":0,
			"byteLength":6456,
			"byteOffset":0,
			"target":34962
		},
		{
			"buffer":0,
			"byteLength":6456,
			"byteOffset":6456,
			"target":34962
		},
		{
			"buffer":0,
			"byteLength":4304,
			"byteOffset":12912,
			"target":34962
		},
		{
			"buffer":0,
			"byteLength":2808,
			"byteOffset":17216,
			"target":34963
		},
		{
			"buffer":0,
			"byteLength":4728,
			"byteOffset":20024,
			"target":34962
		},
		{
			"buffer":0,
			"byteLength":4728,
			"byteOffset":24752,
			"target":34962
		},
		{
			"buffer":0,
			"byteLength":3152,
			"byteOffset":29480,
			"target":34962
		},
		{
			"buffer":0,
			"byteLength":3768,
			"byteOffset":32632,
			"target":34963
		},
		{
			"buffer":0,
			"byteLength":1068,
			"byteOffset":36400,
			"target":34962
		},
		{
			"buffer":0,
			"byteLength":1068,
			"byteOffset":37468,
			"target":34962
		},
		{
			"buffer":0,
			"byteLength":712,
			"byteOffset":38536,
			"target":34962
		},
		{
			"buffer":0,
			"byteLength":768,
			"byteOffset":39248,
			"target":34963
		},
		{
			"buffer":0,
			"byteLength":185856,
			"byteOffset":40016,
			"target":34962
		},
		{
			"buffer":0,
			"byteLength":185856,
			"byteOffset":225872,
			"target":34962
		},
		{
			"buffer":0,
			"byteLength":123904,
			"byteOffset":411728,
			"target":34962
		},
		{
			"buffer":0,
			"byteLength":46464,
			"byteOffset":535632,
			"target":34963
		}
	],
	"samplers":[
		{
			"magFilter":9729,
			"minFilter":9987
		}
	],
	"buffers":[
		{
			"byteLength":582096,
			"uri":"anpassung.bin"
		}
	]
}
